<?xml version="1.0" encoding="UTF-8"?>
<svg version="1.1" xmlns="http://www.w3.org/2000/svg" width="256" height="256">
<path d="M0 0 C26.4 0 52.8 0 80 0 C80 4.95 80 9.9 80 15 C95.84 15 111.68 15 128 15 C128 20.61 128 26.22 128 32 C117.44 32 106.88 32 96 32 C96 37.28 96 42.56 96 48 C106.56 48 117.12 48 128 48 C128 52.95 128 57.9 128 63 C133.61 63 139.22 63 145 63 C145 68.28 145 73.56 145 79 C139.39 79 133.78 79 128 79 C128 84.61 128 90.22 128 96 C122.72 96 117.44 96 112 96 C112 101.28 112 106.56 112 112 C101.44 112 90.88 112 80 112 C80 116.95 80 121.9 80 127 C95.84 127 111.68 127 128 127 C128 132.28 128 137.56 128 143 C133.61 143 139.22 143 145 143 C145 164.12 145 185.24 145 207 C134.11 207 123.22 207 112 207 C112 212.61 112 218.22 112 224 C117.28 224 122.56 224 128 224 C128 229.28 128 234.56 128 240 C133.61 240 139.22 240 145 240 C145 245.28 145 250.56 145 256 C123.55 256 102.1 256 80 256 C80 245.44 80 234.88 80 224 C74.72 224 69.44 224 64 224 C64 218.39 64 212.78 64 207 C53.44 207 42.88 207 32 207 C32 212.61 32 218.22 32 224 C26.72 224 21.44 224 16 224 C16 234.56 16 245.12 16 256 C-4.79 256 -25.58 256 -47 256 C-47 250.72 -47 245.44 -47 240 C-42.05 240 -37.1 240 -32 240 C-32 234.72 -32 229.44 -32 224 C-26.72 224 -21.44 224 -16 224 C-16 218.39 -16 212.78 -16 207 C-26.23 207 -36.46 207 -47 207 C-47 185.88 -47 164.76 -47 143 C-42.05 143 -37.1 143 -32 143 C-32 137.72 -32 132.44 -32 127 C-26.72 127 -21.44 127 -16 127 C-16 122.05 -16 117.1 -16 112 C-10.72 112 -5.44 112 0 112 C0 106.72 0 101.44 0 96 C-10.56 96 -21.12 96 -32 96 C-32 80.16 -32 64.32 -32 48 C-26.72 48 -21.44 48 -16 48 C-16 37.11 -16 26.22 -16 15 C-10.72 15 -5.44 15 0 15 C0 10.05 0 5.1 0 0 Z " fill="#F83800" transform="translate(79,0)"/>
<path d="M0 0 C26.4 0 52.8 0 80 0 C80 4.95 80 9.9 80 15 C95.84 15 111.68 15 128 15 C128 20.61 128 26.22 128 32 C117.44 32 106.88 32 96 32 C96 37.28 96 42.56 96 48 C106.56 48 117.12 48 128 48 C128 52.95 128 57.9 128 63 C133.61 63 139.22 63 145 63 C145 68.28 145 73.56 145 79 C139.39 79 133.78 79 128 79 C128 84.61 128 90.22 128 96 C122.72 96 117.44 96 112 96 C112 101.28 112 106.56 112 112 C75.04 112 38.08 112 0 112 C0 106.72 0 101.44 0 96 C-10.56 96 -21.12 96 -32 96 C-32 80.16 -32 64.32 -32 48 C-26.72 48 -21.44 48 -16 48 C-16 37.11 -16 26.22 -16 15 C-10.72 15 -5.44 15 0 15 C0 10.05 0 5.1 0 0 Z " fill="#FFA347" transform="translate(79,0)"/>
<path d="M0 0 C26.4 0 52.8 0 80 0 C80 4.95 80 9.9 80 15 C95.84 15 111.68 15 128 15 C128 20.61 128 26.22 128 32 C112.16 32 96.32 32 80 32 C80 42.23 80 52.46 80 63 C74.72 63 69.44 63 64 63 C64 52.77 64 42.54 64 32 C37.6 32 11.2 32 -16 32 C-16 26.39 -16 20.78 -16 15 C-10.72 15 -5.44 15 0 15 C0 10.05 0 5.1 0 0 Z " fill="#F83800" transform="translate(79,0)"/>
<path d="M0 0 C15.84 0 31.68 0 48 0 C48 5.28 48 10.56 48 16 C42.72 16 37.44 16 32 16 C32 20.95 32 25.9 32 31 C37.28 31 42.56 31 48 31 C48 36.28 48 41.56 48 47 C37.44 47 26.88 47 16 47 C16 52.61 16 58.22 16 64 C5.44 64 -5.12 64 -16 64 C-16 48.16 -16 32.32 -16 16 C-10.72 16 -5.44 16 0 16 C0 10.72 0 5.44 0 0 Z " fill="#AF7F00" transform="translate(63,32)"/>
<path d="M0 0 C10.56 0 21.12 0 32 0 C32 15.84 32 31.68 32 48 C26.72 48 21.44 48 16 48 C16 53.28 16 58.56 16 64 C10.72 64 5.44 64 0 64 C0 58.72 0 53.44 0 48 C-10.23 48 -20.46 48 -31 48 C-31 42.39 -31 36.78 -31 31 C-26.05 31 -21.1 31 -16 31 C-16 25.72 -16 20.44 -16 15 C-10.72 15 -5.44 15 0 15 C0 10.05 0 5.1 0 0 Z " fill="#AF7F00" transform="translate(63,112)"/>
<path d="M0 0 C15.84 0 31.68 0 48 0 C48 5.28 48 10.56 48 16 C53.61 16 59.22 16 65 16 C65 21.61 65 27.22 65 33 C54.11 33 43.22 33 32 33 C32 38.28 32 43.56 32 49 C26.72 49 21.44 49 16 49 C16 43.72 16 38.44 16 33 C10.72 33 5.44 33 0 33 C0 22.11 0 11.22 0 0 Z " fill="#AF7F00" transform="translate(159,127)"/>
<path d="M0 0 C15.84 0 31.68 0 48 0 C48 5.28 48 10.56 48 16 C53.61 16 59.22 16 65 16 C65 21.28 65 26.56 65 32 C43.55 32 22.1 32 0 32 C0 21.44 0 10.88 0 0 Z " fill="#AF7F00" transform="translate(159,224)"/>
<path d="M0 0 C10.89 0 21.78 0 33 0 C33 15.51 33 31.02 33 47 C22.11 47 11.22 47 0 47 C0 41.72 0 36.44 0 31 C-5.28 31 -10.56 31 -16 31 C-16 26.05 -16 21.1 -16 16 C-10.72 16 -5.44 16 0 16 C0 10.72 0 5.44 0 0 Z " fill="#FFA347" transform="translate(191,160)"/>
<path d="M0 0 C15.84 0 31.68 0 48 0 C48 10.56 48 21.12 48 32 C27.21 32 6.42 32 -15 32 C-15 26.72 -15 21.44 -15 16 C-10.05 16 -5.1 16 0 16 C0 10.72 0 5.44 0 0 Z " fill="#AF7F00" transform="translate(47,224)"/>
<path d="M0 0 C5.28 0 10.56 0 16 0 C16 5.28 16 10.56 16 16 C26.56 16 37.12 16 48 16 C48 20.95 48 25.9 48 31 C53.61 31 59.22 31 65 31 C65 36.28 65 41.56 65 47 C48.83 47 32.66 47 16 47 C16 41.72 16 36.44 16 31 C10.72 31 5.44 31 0 31 C0 20.77 0 10.54 0 0 Z " fill="#FFA347" transform="translate(159,32)"/>
<path d="M0 0 C10.23 0 20.46 0 31 0 C31 5.28 31 10.56 31 16 C36.28 16 41.56 16 47 16 C47 20.95 47 25.9 47 31 C41.72 31 36.44 31 31 31 C31 36.28 31 41.56 31 47 C20.77 47 10.54 47 0 47 C0 31.49 0 15.98 0 0 Z " fill="#FFA347" transform="translate(32,160)"/>
<path d="M0 0 C5.28 0 10.56 0 16 0 C16 5.28 16 10.56 16 16 C26.56 16 37.12 16 48 16 C48 21.61 48 27.22 48 33 C26.88 33 5.76 33 -16 33 C-16 27.39 -16 21.78 -16 16 C-10.72 16 -5.44 16 0 16 C0 10.72 0 5.44 0 0 Z " fill="#AF7F00" transform="translate(159,63)"/>
<path d="M0 0 C15.84 0 31.68 0 48 0 C48 4.95 48 9.9 48 15 C42.72 15 37.44 15 32 15 C32 20.28 32 25.56 32 31 C21.44 31 10.88 31 0 31 C0 20.77 0 10.54 0 0 Z " fill="#AF7F00" transform="translate(111,112)"/>
<path d="M0 0 C5.28 0 10.56 0 16 0 C16 10.23 16 20.46 16 31 C21.28 31 26.56 31 32 31 C32 36.61 32 42.22 32 48 C21.44 48 10.88 48 0 48 C0 32.16 0 16.32 0 0 Z " fill="#AF7F00" transform="translate(47,48)"/>
<path d="M0 0 C5.28 0 10.56 0 16 0 C16 10.23 16 20.46 16 31 C10.72 31 5.44 31 0 31 C0 20.77 0 10.54 0 0 Z " fill="#FFA347" transform="translate(63,48)"/>
<path d="M0 0 C5.28 0 10.56 0 16 0 C16 10.23 16 20.46 16 31 C10.72 31 5.44 31 0 31 C0 20.77 0 10.54 0 0 Z " fill="#AF7F00" transform="translate(143,32)"/>
<path d="M0 0 C5.28 0 10.56 0 16 0 C16 5.28 16 10.56 16 16 C10.72 16 5.44 16 0 16 C0 10.72 0 5.44 0 0 Z " fill="#FFA347" transform="translate(143,160)"/>
<path d="M0 0 C5.28 0 10.56 0 16 0 C16 5.28 16 10.56 16 16 C10.72 16 5.44 16 0 16 C0 10.72 0 5.44 0 0 Z " fill="#FFA347" transform="translate(95,160)"/>
</svg>
